<?xml version="1.0" encoding="utf-8"?>
<!-- Generator: Adobe Illustrator 24.0.1, SVG Export Plug-In . SVG Version: 6.00 Build 0)  -->
<svg version="1.1" id="Слой_1" xmlns="http://www.w3.org/2000/svg" xmlns:xlink="http://www.w3.org/1999/xlink" x="0px" y="0px"
	 viewBox="0 0 316.59 48.57" style="enable-background:new 0 0 316.59 48.57;" xml:space="preserve">
<style type="text/css">
	.st0{fill:#0058A0;}
	.st1{fill:#47A6F4;}
	.st2{fill:#BDDFFF;}
</style>
<path class="st0" d="M213.62,25.72c0-8.42,6.35-15.31,15.44-15.31c5.58,0,8.71,2.11,11.46,4.82l-3.89,4.48
	c-2.28-2.07-4.23-3.3-7.61-3.3c-4.99,0-8.59,4.15-8.59,9.31c0,5.08,3.51,9.31,8.59,9.31c3.38,0,5.46-1.35,7.78-3.47l4.14,4.44
	c-3.05,3.26-6.43,5.03-12.14,5.03C220.09,41.03,213.62,34.3,213.62,25.72z"/>
<path class="st0" d="M261.2,27.83V10.91h6.51v16.75c0,4.82,2.41,7.32,6.39,7.32c3.98,0,6.39-2.41,6.39-7.11V10.91H287v16.71
	c0,8.97-5.03,13.37-12.99,13.37C266.06,40.99,261.2,36.55,261.2,27.83z"/>
<path class="st0" d="M291.42,10.91h13.75c3.38,0,6.05,0.93,7.74,2.62c1.35,1.35,2.03,3,2.03,5.12c0,3.34-1.78,5.2-3.89,6.39
	c3.43,1.31,5.54,3.3,5.54,7.36c0,5.41-4.4,8.12-11.08,8.12h-14.09V10.91z M303.77,22.88c2.88,0,4.69-0.93,4.69-3.21
	c0-1.95-1.52-3.05-4.27-3.05h-6.43v6.26H303.77z M305.51,34.81c2.88,0,4.61-1.01,4.61-3.3c0-1.99-1.48-3.22-4.82-3.22h-7.53v6.51
	H305.51z"/>
<path class="st0" d="M71.6,10.91h7.19l7.74,20.85l7.74-20.85h7.02L89.32,40.73h-5.75L71.6,10.91z"/>
<path class="st0" d="M135.12,25.72c0-8.42,6.35-15.31,15.44-15.31c5.58,0,8.71,2.11,11.46,4.82l-3.89,4.48
	c-2.28-2.07-4.23-3.3-7.61-3.3c-4.99,0-8.59,4.15-8.59,9.31c0,5.08,3.51,9.31,8.59,9.31c3.38,0,5.46-1.35,7.78-3.47l4.14,4.44
	c-3.05,3.26-6.43,5.03-12.14,5.03C141.59,41.03,135.12,34.3,135.12,25.72z"/>
<path class="st0" d="M176.72,10.7h6.01l12.69,29.82h-6.81l-2.71-6.64h-12.52l-2.71,6.64h-6.64L176.72,10.7z M183.57,28.13l-3.93-9.6
	l-3.93,9.6H183.57z"/>
<path class="st0" d="M212.25,34.6h-7.4V10.91h-6.51v29.61h17.93C214.48,38.93,213.1,36.91,212.25,34.6z"/>
<path class="st0" d="M258.59,34.6h-7.4V10.91h-6.51v29.61h17.93C260.83,38.93,259.45,36.91,258.59,34.6z"/>
<path class="st0" d="M100.69,25.72c0-8.42,6.64-15.31,15.78-15.31s15.69,6.81,15.69,15.31c0,8.42-6.64,15.31-15.78,15.31
	C107.24,41.03,100.69,34.22,100.69,25.72z M125.35,25.72c0-5.08-3.72-9.31-8.97-9.31c-5.25,0-8.88,4.15-8.88,9.31
	c0,5.08,3.72,9.31,8.97,9.31C121.71,35.02,125.35,30.88,125.35,25.72z"/>
<polygon class="st0" points="35.86,13.9 11.1,13.9 31.15,48.57 23.48,48.57 23.28,48.57 0,6.98 39.21,6.98 "/>
<polygon class="st1" points="0,6.98 39.21,6.98 26.5,28.41 30.91,35.14 31.25,34.55 51.18,0 4.05,0 "/>
<polygon class="st2" points="19.3,13.85 31.25,34.55 51.18,0 55.14,7.16 31.15,48.57 11.1,13.85 "/>
</svg>
